<mxfile host="65bd71144e">
    <diagram id="bWB9aSFQ_07Y3bA2QbNe" name="Page-1">
        <mxGraphModel dx="3282" dy="691" grid="0" gridSize="10" guides="1" tooltips="0" connect="1" arrows="1" fold="1" page="0" pageScale="1" pageWidth="850" pageHeight="1100" math="0" shadow="0">
            <root>
                <mxCell id="0"/>
                <mxCell id="1" parent="0"/>
                <mxCell id="224" value="&amp;lt;&amp;lt;CREATE&amp;gt;&amp;gt;" style="html=1;verticalAlign=bottom;endArrow=block;" parent="1" source="106" edge="1">
                    <mxGeometry width="80" relative="1" as="geometry">
                        <mxPoint x="-206" y="1228.4350000000004" as="sourcePoint"/>
                        <mxPoint x="431" y="1168" as="targetPoint"/>
                    </mxGeometry>
                </mxCell>
                <mxCell id="158" value="onClick()" style="html=1;verticalAlign=bottom;endArrow=block;" parent="1" source="33" target="159" edge="1">
                    <mxGeometry width="80" relative="1" as="geometry">
                        <mxPoint x="-1632" y="1258" as="sourcePoint"/>
                        <mxPoint x="500" y="1473" as="targetPoint"/>
                    </mxGeometry>
                </mxCell>
                <mxCell id="210" value="opt" style="shape=umlFrame;whiteSpace=wrap;html=1;" parent="1" vertex="1">
                    <mxGeometry x="962" y="2220" width="590" height="115" as="geometry"/>
                </mxCell>
                <mxCell id="203" value="onClick()" style="html=1;verticalAlign=bottom;endArrow=block;" parent="1" source="199" target="202" edge="1">
                    <mxGeometry x="0.3444" width="80" relative="1" as="geometry">
                        <mxPoint x="800" y="2269" as="sourcePoint"/>
                        <mxPoint x="878" y="2173" as="targetPoint"/>
                        <mxPoint as="offset"/>
                    </mxGeometry>
                </mxCell>
                <mxCell id="200" value="onCreate()" style="html=1;verticalAlign=bottom;endArrow=block;" parent="1" source="196" target="199" edge="1">
                    <mxGeometry width="80" relative="1" as="geometry">
                        <mxPoint x="710.3235294117658" y="2163" as="sourcePoint"/>
                        <mxPoint x="-217" y="1257.6599999999999" as="targetPoint"/>
                    </mxGeometry>
                </mxCell>
                <mxCell id="67" value="dispensaController: DispensaController" style="shape=umlLifeline;perimeter=lifelinePerimeter;whiteSpace=wrap;html=1;container=1;collapsible=0;recursiveResize=0;outlineConnect=0;" parent="1" vertex="1">
                    <mxGeometry x="-805" y="618" width="166" height="214" as="geometry"/>
                </mxCell>
                <mxCell id="68" value="" style="html=1;points=[];perimeter=orthogonalPerimeter;" parent="67" vertex="1">
                    <mxGeometry x="77.5" y="85" width="10" height="77" as="geometry"/>
                </mxCell>
                <mxCell id="70" value="" style="html=1;points=[];perimeter=orthogonalPerimeter;" parent="67" vertex="1">
                    <mxGeometry x="83" y="105" width="10" height="47" as="geometry"/>
                </mxCell>
                <mxCell id="71" value="serverRequest()" style="edgeStyle=orthogonalEdgeStyle;html=1;align=left;spacingLeft=2;endArrow=block;rounded=0;" parent="67" source="68" target="70" edge="1">
                    <mxGeometry relative="1" as="geometry">
                        <mxPoint x="129" y="132" as="sourcePoint"/>
                        <Array as="points">
                            <mxPoint x="121" y="92"/>
                            <mxPoint x="121" y="116"/>
                        </Array>
                        <mxPoint x="134" y="152" as="targetPoint"/>
                    </mxGeometry>
                </mxCell>
                <mxCell id="78" value="&amp;lt;&amp;lt;CREATE&amp;gt;&amp;gt;" style="html=1;verticalAlign=bottom;endArrow=block;" parent="67" source="70" edge="1">
                    <mxGeometry width="80" relative="1" as="geometry">
                        <mxPoint x="112" y="148.20000000000005" as="sourcePoint"/>
                        <mxPoint x="195" y="145" as="targetPoint"/>
                    </mxGeometry>
                </mxCell>
                <mxCell id="79" value="loop" style="shape=umlFrame;whiteSpace=wrap;html=1;" parent="67" vertex="1">
                    <mxGeometry x="-30" y="126" width="412" height="78" as="geometry"/>
                </mxCell>
                <mxCell id="81" value="&lt;font style=&quot;font-size: 8px;&quot;&gt;[for each prodotto in json]&lt;/font&gt;" style="text;html=1;align=center;verticalAlign=middle;resizable=0;points=[];autosize=1;strokeColor=none;fillColor=none;" parent="67" vertex="1">
                    <mxGeometry x="-30.5" y="158" width="108" height="26" as="geometry"/>
                </mxCell>
                <mxCell id="116" value="onClick()" style="html=1;verticalAlign=bottom;endArrow=block;exitX=1.436;exitY=0.475;exitDx=0;exitDy=0;exitPerimeter=0;" parent="1" source="34" target="122" edge="1">
                    <mxGeometry width="80" relative="1" as="geometry">
                        <mxPoint x="-1642" y="1248" as="sourcePoint"/>
                        <mxPoint x="18.5" y="1317" as="targetPoint"/>
                    </mxGeometry>
                </mxCell>
                <mxCell id="102" value="onClick()" style="html=1;verticalAlign=bottom;endArrow=block;entryX=-0.15;entryY=0.065;entryDx=0;entryDy=0;entryPerimeter=0;" parent="1" source="34" target="104" edge="1">
                    <mxGeometry width="80" relative="1" as="geometry">
                        <mxPoint x="-1645" y="1129" as="sourcePoint"/>
                        <mxPoint x="-827" y="1129" as="targetPoint"/>
                    </mxGeometry>
                </mxCell>
                <mxCell id="99" value="onNavigationItemSelected()" style="html=1;verticalAlign=bottom;endArrow=block;entryX=0.166;entryY=0.025;entryDx=0;entryDy=0;entryPerimeter=0;" parent="1" source="33" target="42" edge="1">
                    <mxGeometry width="80" relative="1" as="geometry">
                        <mxPoint x="-1629.2400000000002" y="478.27600000000007" as="sourcePoint"/>
                        <mxPoint x="-1541" y="478" as="targetPoint"/>
                    </mxGeometry>
                </mxCell>
                <mxCell id="48" value="onCretateView()" style="html=1;verticalAlign=bottom;endArrow=block;entryX=0.035;entryY=0.06;entryDx=0;entryDy=0;entryPerimeter=0;" parent="1" source="39" target="50" edge="1">
                    <mxGeometry width="80" relative="1" as="geometry">
                        <mxPoint x="-1358" y="543.0000000000005" as="sourcePoint"/>
                        <mxPoint x="-1278" y="543.0000000000005" as="targetPoint"/>
                    </mxGeometry>
                </mxCell>
                <mxCell id="8" value="&lt;b style=&quot;border-color: var(--border-color); color: rgb(0, 0, 0); font-family: Helvetica; font-size: 12px; font-style: normal; font-variant-ligatures: normal; font-variant-caps: normal; letter-spacing: normal; orphans: 2; text-align: left; text-indent: 0px; text-transform: none; widows: 2; word-spacing: 0px; -webkit-text-stroke-width: 0px; background-color: rgb(251, 251, 251); text-decoration-thickness: initial; text-decoration-style: initial; text-decoration-color: initial;&quot;&gt;&lt;span style=&quot;border-color: var(--border-color);&quot;&gt;Aggiungi un nuovo alimento in dispensa e modifica la sua quantitÃ &lt;/span&gt;&lt;/b&gt;&lt;span style=&quot;border-color: var(--border-color); color: rgb(0, 0, 0); font-family: Helvetica; font-size: 12px; font-style: normal; font-variant-ligatures: normal; font-variant-caps: normal; font-weight: 400; letter-spacing: normal; orphans: 2; text-align: left; text-indent: 0px; text-transform: none; widows: 2; word-spacing: 0px; -webkit-text-stroke-width: 0px; background-color: rgb(251, 251, 251); text-decoration-thickness: initial; text-decoration-style: initial; text-decoration-color: initial;&quot;&gt;&amp;nbsp;&lt;/span&gt;" style="text;whiteSpace=wrap;html=1;" parent="1" vertex="1">
                    <mxGeometry x="-1629" y="188" width="1017" height="50" as="geometry"/>
                </mxCell>
                <mxCell id="9" value="&lt;b style=&quot;border-color: var(--border-color); color: rgb(0, 0, 0); font-family: Helvetica; font-size: 12px; font-style: normal; font-variant-ligatures: normal; font-variant-caps: normal; letter-spacing: normal; orphans: 2; text-align: left; text-indent: 0px; text-transform: none; widows: 2; word-spacing: 0px; -webkit-text-stroke-width: 0px; background-color: rgb(251, 251, 251); text-decoration-thickness: initial; text-decoration-style: initial; text-decoration-color: initial;&quot;&gt;&lt;span style=&quot;border-color: var(--border-color);&quot;&gt;Crea e visualizza piatto creato in una nuova categoria con aggiunta di una seconda lingua&lt;/span&gt;&lt;/b&gt;" style="text;whiteSpace=wrap;html=1;" parent="1" vertex="1">
                    <mxGeometry x="2439" y="411" width="625" height="50" as="geometry"/>
                </mxCell>
                <mxCell id="13" value="" style="shape=umlLifeline;participant=umlActor;perimeter=lifelinePerimeter;whiteSpace=wrap;html=1;container=1;collapsible=0;recursiveResize=0;verticalAlign=top;spacingTop=36;outlineConnect=0;" parent="1" vertex="1">
                    <mxGeometry x="2436" y="520" width="20" height="1130" as="geometry"/>
                </mxCell>
                <mxCell id="14" value="" style="html=1;points=[];perimeter=orthogonalPerimeter;" parent="13" vertex="1">
                    <mxGeometry x="5" y="50" width="10" height="1030" as="geometry"/>
                </mxCell>
                <mxCell id="15" value="sideBar :SideBarController" style="shape=umlLifeline;perimeter=lifelinePerimeter;whiteSpace=wrap;html=1;container=1;collapsible=0;recursiveResize=0;outlineConnect=0;" parent="1" vertex="1">
                    <mxGeometry x="2536" y="508" width="100" height="195" as="geometry"/>
                </mxCell>
                <mxCell id="24" value="" style="html=1;points=[];perimeter=orthogonalPerimeter;" parent="15" vertex="1">
                    <mxGeometry x="45" y="103" width="10" height="79" as="geometry"/>
                </mxCell>
                <mxCell id="37" value="" style="html=1;points=[];perimeter=orthogonalPerimeter;" parent="15" vertex="1">
                    <mxGeometry x="49" y="120" width="9" height="53" as="geometry"/>
                </mxCell>
                <mxCell id="38" value="changeScene()" style="edgeStyle=orthogonalEdgeStyle;html=1;align=left;spacingLeft=2;endArrow=block;rounded=0;entryX=1;entryY=0;" parent="15" source="24" target="37" edge="1">
                    <mxGeometry x="-0.7305" y="8" relative="1" as="geometry">
                        <mxPoint x="74" y="89" as="sourcePoint"/>
                        <Array as="points">
                            <mxPoint x="95" y="110"/>
                            <mxPoint x="95" y="121"/>
                            <mxPoint x="58" y="121"/>
                        </Array>
                        <mxPoint as="offset"/>
                    </mxGeometry>
                </mxCell>
                <mxCell id="23" value="goToMenu()" style="html=1;verticalAlign=bottom;endArrow=block;entryX=-0.156;entryY=0.013;entryDx=0;entryDy=0;entryPerimeter=0;" parent="1" source="14" target="24" edge="1">
                    <mxGeometry width="80" relative="1" as="geometry">
                        <mxPoint x="2476" y="640" as="sourcePoint"/>
                        <mxPoint x="2561" y="640" as="targetPoint"/>
                    </mxGeometry>
                </mxCell>
                <mxCell id="25" value="MenuController" style="shape=umlLifeline;perimeter=lifelinePerimeter;whiteSpace=wrap;html=1;container=1;collapsible=0;recursiveResize=0;outlineConnect=0;" parent="1" vertex="1">
                    <mxGeometry x="2694" y="560" width="110" height="280" as="geometry"/>
                </mxCell>
                <mxCell id="35" value="" style="html=1;points=[];perimeter=orthogonalPerimeter;" parent="25" vertex="1">
                    <mxGeometry x="50" y="116" width="10" height="153" as="geometry"/>
                </mxCell>
                <mxCell id="46" value="" style="html=1;points=[];perimeter=orthogonalPerimeter;" parent="25" vertex="1">
                    <mxGeometry x="56" y="147" width="9" height="16" as="geometry"/>
                </mxCell>
                <mxCell id="47" value="initialize()&lt;span style=&quot;color: rgba(0, 0, 0, 0); font-family: monospace; font-size: 0px;&quot;&gt;%3CmxGraphModel%3E%3Croot%3E%3CmxCell%20id%3D%220%22%2F%3E%3CmxCell%20id%3D%221%22%20parent%3D%220%22%2F%3E%3CmxCell%20id%3D%222%22%20value%3D%22%22%20style%3D%22html%3D1%3Bpoints%3D%5B%5D%3Bperimeter%3DorthogonalPerimeter%3B%22%20vertex%3D%221%22%20parent%3D%221%22%3E%3CmxGeometry%20x%3D%22191%22%20y%3D%22657%22%20width%3D%2218%22%20height%3D%2216%22%20as%3D%22geometry%22%2F%3E%3C%2FmxCell%3E%3CmxCell%20id%3D%223%22%20value%3D%22changeScene()%22%20style%3D%22edgeStyle%3DorthogonalEdgeStyle%3Bhtml%3D1%3Balign%3Dleft%3BspacingLeft%3D2%3BendArrow%3Dblock%3Brounded%3D0%3BentryX%3D1%3BentryY%3D0%3B%22%20edge%3D%221%22%20target%3D%222%22%20parent%3D%221%22%3E%3CmxGeometry%20x%3D%22-0.4%22%20y%3D%2212%22%20relative%3D%221%22%20as%3D%22geometry%22%3E%3CmxPoint%20x%3D%22205%22%20y%3D%22644.9999999999998%22%20as%3D%22sourcePoint%22%2F%3E%3CArray%20as%3D%22points%22%3E%3CmxPoint%20x%3D%22245%22%20y%3D%22645%22%2F%3E%3CmxPoint%20x%3D%22245%22%20y%3D%22657%22%2F%3E%3C%2FArray%3E%3CmxPoint%20as%3D%22offset%22%2F%3E%3C%2FmxGeometry%3E%3C%2FmxCell%3E%3C%2Froot%3E%3C%2FmxGraphModel%3E&lt;/span&gt;&lt;span style=&quot;color: rgba(0, 0, 0, 0); font-family: monospace; font-size: 0px;&quot;&gt;%3CmxGraphModel%3E%3Croot%3E%3CmxCell%20id%3D%220%22%2F%3E%3CmxCell%20id%3D%221%22%20parent%3D%220%22%2F%3E%3CmxCell%20id%3D%222%22%20value%3D%22%22%20style%3D%22html%3D1%3Bpoints%3D%5B%5D%3Bperimeter%3DorthogonalPerimeter%3B%22%20vertex%3D%221%22%20parent%3D%221%22%3E%3CmxGeometry%20x%3D%22191%22%20y%3D%22657%22%20width%3D%2218%22%20height%3D%2216%22%20as%3D%22geometry%22%2F%3E%3C%2FmxCell%3E%3CmxCell%20id%3D%223%22%20value%3D%22changeScene()%22%20style%3D%22edgeStyle%3DorthogonalEdgeStyle%3Bhtml%3D1%3Balign%3Dleft%3BspacingLeft%3D2%3BendArrow%3Dblock%3Brounded%3D0%3BentryX%3D1%3BentryY%3D0%3B%22%20edge%3D%221%22%20target%3D%222%22%20parent%3D%221%22%3E%3CmxGeometry%20x%3D%22-0.4%22%20y%3D%2212%22%20relative%3D%221%22%20as%3D%22geometry%22%3E%3CmxPoint%20x%3D%22205%22%20y%3D%22644.9999999999998%22%20as%3D%22sourcePoint%22%2F%3E%3CArray%20as%3D%22points%22%3E%3CmxPoint%20x%3D%22245%22%20y%3D%22645%22%2F%3E%3CmxPoint%20x%3D%22245%22%20y%3D%22657%22%2F%3E%3C%2FArray%3E%3CmxPoint%20as%3D%22offset%22%2F%3E%3C%2FmxGeometry%3E%3C%2FmxCell%3E%3C%2Froot%3E%3C%2FmxGraphModel%3&lt;/span&gt;" style="edgeStyle=orthogonalEdgeStyle;html=1;align=left;spacingLeft=2;endArrow=block;rounded=0;entryX=1;entryY=0;" parent="25" source="35" target="46" edge="1">
                    <mxGeometry x="-0.4" y="12" relative="1" as="geometry">
                        <mxPoint x="55" y="134.99999999999977" as="sourcePoint"/>
                        <Array as="points">
                            <mxPoint x="95" y="135"/>
                            <mxPoint x="95" y="147"/>
                        </Array>
                        <mxPoint as="offset"/>
                    </mxGeometry>
                </mxCell>
                <mxCell id="100" value="&lt;font style=&quot;font-size: 8px;&quot;&gt;[for each categoria in listaCategorie]&lt;/font&gt;" style="text;html=1;align=center;verticalAlign=middle;resizable=0;points=[];autosize=1;strokeColor=none;fillColor=none;" parent="25" vertex="1">
                    <mxGeometry x="-9" y="313" width="146" height="26" as="geometry"/>
                </mxCell>
                <mxCell id="33" value="" style="shape=umlLifeline;participant=umlActor;perimeter=lifelinePerimeter;whiteSpace=wrap;html=1;container=1;collapsible=0;recursiveResize=0;verticalAlign=top;spacingTop=36;outlineConnect=0;" parent="1" vertex="1">
                    <mxGeometry x="-1654" y="395" width="20" height="1919" as="geometry"/>
                </mxCell>
                <mxCell id="34" value="" style="html=1;points=[];perimeter=orthogonalPerimeter;" parent="33" vertex="1">
                    <mxGeometry x="5" y="61" width="10" height="1858" as="geometry"/>
                </mxCell>
                <mxCell id="39" value="onItemSelectedListener : NavigationBarView.OnItemSelectedListener" style="shape=umlLifeline;perimeter=lifelinePerimeter;whiteSpace=wrap;html=1;container=1;collapsible=0;recursiveResize=0;outlineConnect=0;" parent="1" vertex="1">
                    <mxGeometry x="-1537" y="445" width="247" height="1418" as="geometry"/>
                </mxCell>
                <mxCell id="42" value="" style="html=1;points=[];perimeter=orthogonalPerimeter;" parent="39" vertex="1">
                    <mxGeometry x="118.5" y="77" width="10" height="46" as="geometry"/>
                </mxCell>
                <mxCell id="36" value="openMenu()" style="html=1;verticalAlign=bottom;endArrow=block;" parent="1" source="37" target="35" edge="1">
                    <mxGeometry width="80" relative="1" as="geometry">
                        <mxPoint x="2602" y="719.0000000000001" as="sourcePoint"/>
                        <mxPoint x="2730.44" y="719.0000000000001" as="targetPoint"/>
                    </mxGeometry>
                </mxCell>
                <mxCell id="41" value="ModificaCreaPiattoController" style="shape=umlLifeline;perimeter=lifelinePerimeter;whiteSpace=wrap;html=1;container=1;collapsible=0;recursiveResize=0;outlineConnect=0;" parent="1" vertex="1">
                    <mxGeometry x="2830" y="560" width="179" height="935" as="geometry"/>
                </mxCell>
                <mxCell id="57" value="fillComboBoxCategorie(comboBox: ComboBox, listaCategoria: ArrayList&amp;lt;Categoria&amp;gt;)" style="edgeStyle=orthogonalEdgeStyle;html=1;align=left;spacingLeft=2;endArrow=block;rounded=0;entryX=1;entryY=0;" parent="41" edge="1">
                    <mxGeometry x="0.022" y="3" relative="1" as="geometry">
                        <mxPoint x="98.50000000000045" y="247" as="sourcePoint"/>
                        <Array as="points">
                            <mxPoint x="140" y="247"/>
                            <mxPoint x="140" y="259"/>
                        </Array>
                        <mxPoint as="offset"/>
                        <mxPoint x="102.49999999999955" y="259" as="targetPoint"/>
                    </mxGeometry>
                </mxCell>
                <mxCell id="156" value="" style="html=1;points=[];perimeter=orthogonalPerimeter;" parent="41" vertex="1">
                    <mxGeometry x="84.5" y="791" width="10" height="127" as="geometry"/>
                </mxCell>
                <mxCell id="44" value="goToAggiungiPiatto()" style="edgeStyle=orthogonalEdgeStyle;html=1;align=left;spacingLeft=2;endArrow=block;rounded=0;" parent="1" source="35" target="45" edge="1">
                    <mxGeometry x="-0.6516" y="12" relative="1" as="geometry">
                        <mxPoint x="2749" y="699" as="sourcePoint"/>
                        <Array as="points">
                            <mxPoint x="2834" y="765"/>
                            <mxPoint x="2834" y="765"/>
                        </Array>
                        <mxPoint as="offset"/>
                        <mxPoint x="2752.9999999999995" y="711" as="targetPoint"/>
                    </mxGeometry>
                </mxCell>
                <mxCell id="45" value="" style="html=1;points=[];perimeter=orthogonalPerimeter;" parent="1" vertex="1">
                    <mxGeometry x="2914.5" y="764.5" width="10" height="293.5" as="geometry"/>
                </mxCell>
                <mxCell id="49" value="functionFragment: FunctionFragment" style="shape=umlLifeline;perimeter=lifelinePerimeter;whiteSpace=wrap;html=1;container=1;collapsible=0;recursiveResize=0;outlineConnect=0;" parent="1" vertex="1">
                    <mxGeometry x="-1259" y="442" width="126" height="1428" as="geometry"/>
                </mxCell>
                <mxCell id="50" value="" style="html=1;points=[];perimeter=orthogonalPerimeter;" parent="49" vertex="1">
                    <mxGeometry x="58" y="86" width="10" height="55" as="geometry"/>
                </mxCell>
                <mxCell id="220" value="&amp;lt;&amp;lt;CREATE&amp;gt;&amp;gt;" style="html=1;verticalAlign=bottom;endArrow=block;" parent="49" source="50" edge="1">
                    <mxGeometry width="80" relative="1" as="geometry">
                        <mxPoint x="79" y="141" as="sourcePoint"/>
                        <mxPoint x="143" y="120" as="targetPoint"/>
                    </mxGeometry>
                </mxCell>
                <mxCell id="52" value="" style="html=1;points=[];perimeter=orthogonalPerimeter;" parent="1" vertex="1">
                    <mxGeometry x="2919" y="793" width="9.5" height="165" as="geometry"/>
                </mxCell>
                <mxCell id="53" value="initialize()&lt;span style=&quot;color: rgba(0, 0, 0, 0); font-family: monospace; font-size: 0px;&quot;&gt;%3CmxGraphModel%3E%3Croot%3E%3CmxCell%20id%3D%220%22%2F%3E%3CmxCell%20id%3D%221%22%20parent%3D%220%22%2F%3E%3CmxCell%20id%3D%222%22%20value%3D%22%22%20style%3D%22html%3D1%3Bpoints%3D%5B%5D%3Bperimeter%3DorthogonalPerimeter%3B%22%20vertex%3D%221%22%20parent%3D%221%22%3E%3CmxGeometry%20x%3D%22191%22%20y%3D%22657%22%20width%3D%2218%22%20height%3D%2216%22%20as%3D%22geometry%22%2F%3E%3C%2FmxCell%3E%3CmxCell%20id%3D%223%22%20value%3D%22changeScene()%22%20style%3D%22edgeStyle%3DorthogonalEdgeStyle%3Bhtml%3D1%3Balign%3Dleft%3BspacingLeft%3D2%3BendArrow%3Dblock%3Brounded%3D0%3BentryX%3D1%3BentryY%3D0%3B%22%20edge%3D%221%22%20target%3D%222%22%20parent%3D%221%22%3E%3CmxGeometry%20x%3D%22-0.4%22%20y%3D%2212%22%20relative%3D%221%22%20as%3D%22geometry%22%3E%3CmxPoint%20x%3D%22205%22%20y%3D%22644.9999999999998%22%20as%3D%22sourcePoint%22%2F%3E%3CArray%20as%3D%22points%22%3E%3CmxPoint%20x%3D%22245%22%20y%3D%22645%22%2F%3E%3CmxPoint%20x%3D%22245%22%20y%3D%22657%22%2F%3E%3C%2FArray%3E%3CmxPoint%20as%3D%22offset%22%2F%3E%3C%2FmxGeometry%3E%3C%2FmxCell%3E%3C%2Froot%3E%3C%2FmxGraphModel%3E&lt;/span&gt;&lt;span style=&quot;color: rgba(0, 0, 0, 0); font-family: monospace; font-size: 0px;&quot;&gt;%3CmxGraphModel%3E%3Croot%3E%3CmxCell%20id%3D%220%22%2F%3E%3CmxCell%20id%3D%221%22%20parent%3D%220%22%2F%3E%3CmxCell%20id%3D%222%22%20value%3D%22%22%20style%3D%22html%3D1%3Bpoints%3D%5B%5D%3Bperimeter%3DorthogonalPerimeter%3B%22%20vertex%3D%221%22%20parent%3D%221%22%3E%3CmxGeometry%20x%3D%22191%22%20y%3D%22657%22%20width%3D%2218%22%20height%3D%2216%22%20as%3D%22geometry%22%2F%3E%3C%2FmxCell%3E%3CmxCell%20id%3D%223%22%20value%3D%22changeScene()%22%20style%3D%22edgeStyle%3DorthogonalEdgeStyle%3Bhtml%3D1%3Balign%3Dleft%3BspacingLeft%3D2%3BendArrow%3Dblock%3Brounded%3D0%3BentryX%3D1%3BentryY%3D0%3B%22%20edge%3D%221%22%20target%3D%222%22%20parent%3D%221%22%3E%3CmxGeometry%20x%3D%22-0.4%22%20y%3D%2212%22%20relative%3D%221%22%20as%3D%22geometry%22%3E%3CmxPoint%20x%3D%22205%22%20y%3D%22644.9999999999998%22%20as%3D%22sourcePoint%22%2F%3E%3CArray%20as%3D%22points%22%3E%3CmxPoint%20x%3D%22245%22%20y%3D%22645%22%2F%3E%3CmxPoint%20x%3D%22245%22%20y%3D%22657%22%2F%3E%3C%2FArray%3E%3CmxPoint%20as%3D%22offset%22%2F%3E%3C%2FmxGeometry%3E%3C%2FmxCell%3E%3C%2Froot%3E%3C%2FmxGraphModel%3&lt;/span&gt;" style="edgeStyle=orthogonalEdgeStyle;html=1;align=left;spacingLeft=2;endArrow=block;rounded=0;entryX=1;entryY=0;" parent="1" source="45" target="52" edge="1">
                    <mxGeometry x="-0.4" y="12" relative="1" as="geometry">
                        <mxPoint x="2926" y="780.9999999999998" as="sourcePoint"/>
                        <Array as="points">
                            <mxPoint x="2966" y="781"/>
                            <mxPoint x="2966" y="793"/>
                        </Array>
                        <mxPoint as="offset"/>
                    </mxGeometry>
                </mxCell>
                <mxCell id="54" value="onClickListener: View.OnClickListener" style="shape=umlLifeline;perimeter=lifelinePerimeter;whiteSpace=wrap;html=1;container=1;collapsible=0;recursiveResize=0;outlineConnect=0;" parent="1" vertex="1">
                    <mxGeometry x="-1106" y="538" width="119" height="1448" as="geometry"/>
                </mxCell>
                <mxCell id="55" value="" style="html=1;points=[];perimeter=orthogonalPerimeter;" parent="54" vertex="1">
                    <mxGeometry x="54.5" y="80" width="10" height="46" as="geometry"/>
                </mxCell>
                <mxCell id="56" value="onClick()" style="html=1;verticalAlign=bottom;endArrow=block;entryX=0.137;entryY=0.055;entryDx=0;entryDy=0;entryPerimeter=0;" parent="1" source="34" target="55" edge="1">
                    <mxGeometry width="80" relative="1" as="geometry">
                        <mxPoint x="-1180.9995652173911" y="539.1300000000002" as="sourcePoint"/>
                        <mxPoint x="-967.7800000000001" y="539.1300000000002" as="targetPoint"/>
                    </mxGeometry>
                </mxCell>
                <mxCell id="58" value="" style="html=1;points=[];perimeter=orthogonalPerimeter;" parent="1" vertex="1">
                    <mxGeometry x="2923" y="815" width="10.25" height="120" as="geometry"/>
                </mxCell>
                <mxCell id="59" value="dispensaActivity: DispensaActivity" style="shape=umlLifeline;perimeter=lifelinePerimeter;whiteSpace=wrap;html=1;container=1;collapsible=0;recursiveResize=0;outlineConnect=0;" parent="1" vertex="1">
                    <mxGeometry x="-976" y="441" width="116" height="1538" as="geometry"/>
                </mxCell>
                <mxCell id="60" value="" style="html=1;points=[];perimeter=orthogonalPerimeter;" parent="59" vertex="1">
                    <mxGeometry x="53" y="186.5" width="10" height="87.5" as="geometry"/>
                </mxCell>
                <mxCell id="86" value="" style="html=1;points=[];perimeter=orthogonalPerimeter;" parent="59" vertex="1">
                    <mxGeometry x="53" y="408" width="10" height="211.5" as="geometry"/>
                </mxCell>
                <mxCell id="87" value="" style="html=1;points=[];perimeter=orthogonalPerimeter;" parent="59" vertex="1">
                    <mxGeometry x="59" y="459" width="10" height="87.5" as="geometry"/>
                </mxCell>
                <mxCell id="89" value="creaTextViewNomeProdotto()&lt;br&gt;creaTextViewCategoriaProdotto()&lt;br&gt;creaProgressBar()" style="edgeStyle=orthogonalEdgeStyle;html=1;align=left;spacingLeft=2;endArrow=block;rounded=0;exitX=0.936;exitY=0.138;exitDx=0;exitDy=0;exitPerimeter=0;" parent="59" source="86" target="87" edge="1">
                    <mxGeometry x="0.9581" y="25" relative="1" as="geometry">
                        <mxPoint x="112.5" y="443.5" as="sourcePoint"/>
                        <Array as="points">
                            <mxPoint x="62" y="443"/>
                            <mxPoint x="107" y="443"/>
                            <mxPoint x="107" y="468"/>
                        </Array>
                        <mxPoint x="118" y="467.5" as="targetPoint"/>
                        <mxPoint as="offset"/>
                    </mxGeometry>
                </mxCell>
                <mxCell id="167" value="" style="html=1;points=[];perimeter=orthogonalPerimeter;" parent="59" vertex="1">
                    <mxGeometry x="53" y="1150" width="10" height="130.5" as="geometry"/>
                </mxCell>
                <mxCell id="168" value="" style="html=1;points=[];perimeter=orthogonalPerimeter;" parent="59" vertex="1">
                    <mxGeometry x="53" y="1414.5" width="10" height="211.5" as="geometry"/>
                </mxCell>
                <mxCell id="169" value="" style="html=1;points=[];perimeter=orthogonalPerimeter;" parent="59" vertex="1">
                    <mxGeometry x="59" y="1465.5" width="10" height="87.5" as="geometry"/>
                </mxCell>
                <mxCell id="170" value="creaTextViewNomeProdotto()&lt;br&gt;creaTextViewCategoriaProdotto()&lt;br&gt;creaProgressBar()" style="edgeStyle=orthogonalEdgeStyle;html=1;align=left;spacingLeft=2;endArrow=block;rounded=0;exitX=0.936;exitY=0.138;exitDx=0;exitDy=0;exitPerimeter=0;" parent="59" source="168" target="169" edge="1">
                    <mxGeometry x="0.9581" y="25" relative="1" as="geometry">
                        <mxPoint x="1088.5" y="1005" as="sourcePoint"/>
                        <Array as="points">
                            <mxPoint x="62" y="1449.5"/>
                            <mxPoint x="107" y="1449.5"/>
                            <mxPoint x="107" y="1474.5"/>
                        </Array>
                        <mxPoint x="1094" y="1029" as="targetPoint"/>
                        <mxPoint as="offset"/>
                    </mxGeometry>
                </mxCell>
                <mxCell id="171" value="getProductFromServer()" style="html=1;verticalAlign=bottom;endArrow=block;" parent="59" source="167" edge="1">
                    <mxGeometry width="80" relative="1" as="geometry">
                        <mxPoint x="156" y="1248.5" as="sourcePoint"/>
                        <mxPoint x="248.49999999999955" y="1264.5" as="targetPoint"/>
                    </mxGeometry>
                </mxCell>
                <mxCell id="173" value="update()" style="html=1;verticalAlign=bottom;endArrow=block;entryX=1.002;entryY=0.141;entryDx=0;entryDy=0;entryPerimeter=0;" parent="59" target="168" edge="1">
                    <mxGeometry width="80" relative="1" as="geometry">
                        <mxPoint x="430.5" y="1444.3215" as="sourcePoint"/>
                        <mxPoint x="173" y="1433.5" as="targetPoint"/>
                    </mxGeometry>
                </mxCell>
                <mxCell id="174" value="&amp;lt;&amp;lt;CREATE&amp;gt;&amp;gt;" style="html=1;verticalAlign=bottom;endArrow=block;" parent="59" edge="1">
                    <mxGeometry width="80" relative="1" as="geometry">
                        <mxPoint x="57.32352941176532" y="1206.5" as="sourcePoint"/>
                        <mxPoint x="167" y="1206.5" as="targetPoint"/>
                    </mxGeometry>
                </mxCell>
                <mxCell id="221" value="&amp;lt;&amp;lt;CREATE&amp;gt;&amp;gt;" style="html=1;verticalAlign=bottom;endArrow=block;" parent="59" source="60" edge="1">
                    <mxGeometry x="0.5973" width="80" relative="1" as="geometry">
                        <mxPoint x="72" y="224.99750000000017" as="sourcePoint"/>
                        <mxPoint x="500" y="230" as="targetPoint"/>
                        <mxPoint as="offset"/>
                    </mxGeometry>
                </mxCell>
                <mxCell id="61" value="onCreate()" style="html=1;verticalAlign=bottom;endArrow=block;entryX=-0.013;entryY=0.092;entryDx=0;entryDy=0;entryPerimeter=0;" parent="1" source="55" target="60" edge="1">
                    <mxGeometry width="80" relative="1" as="geometry">
                        <mxPoint x="-1021" y="589" as="sourcePoint"/>
                        <mxPoint x="-817" y="546" as="targetPoint"/>
                    </mxGeometry>
                </mxCell>
                <mxCell id="63" value="menuDriver&lt;br&gt;:MenuDriver" style="shape=umlLifeline;perimeter=lifelinePerimeter;whiteSpace=wrap;html=1;container=1;collapsible=0;recursiveResize=0;outlineConnect=0;" parent="1" vertex="1">
                    <mxGeometry x="3520" y="1011" width="130" height="542" as="geometry"/>
                </mxCell>
                <mxCell id="65" value="" style="html=1;points=[];perimeter=orthogonalPerimeter;" parent="63" vertex="1">
                    <mxGeometry x="60" y="64" width="10" height="52" as="geometry"/>
                </mxCell>
                <mxCell id="142" value="" style="html=1;points=[];perimeter=orthogonalPerimeter;" parent="63" vertex="1">
                    <mxGeometry x="60" y="456" width="10" height="54" as="geometry"/>
                </mxCell>
                <mxCell id="69" value="getProductFromServer()" style="html=1;verticalAlign=bottom;endArrow=block;" parent="1" source="60" target="68" edge="1">
                    <mxGeometry width="80" relative="1" as="geometry">
                        <mxPoint x="-820" y="687" as="sourcePoint"/>
                        <mxPoint x="-628" y="687" as="targetPoint"/>
                    </mxGeometry>
                </mxCell>
                <mxCell id="73" value="prodotto : Prodotto" style="shape=umlLifeline;perimeter=lifelinePerimeter;whiteSpace=wrap;html=1;container=1;collapsible=0;recursiveResize=0;outlineConnect=0;" parent="1" vertex="1">
                    <mxGeometry x="-605" y="749.5" width="129" height="278.5" as="geometry"/>
                </mxCell>
                <mxCell id="84" value="" style="html=1;points=[];perimeter=orthogonalPerimeter;" parent="73" vertex="1">
                    <mxGeometry x="59.5" y="49" width="10" height="155" as="geometry"/>
                </mxCell>
                <mxCell id="77" value="&amp;lt;&amp;lt;create&amp;gt;&amp;gt;" style="html=1;verticalAlign=bottom;endArrow=block;" parent="1" edge="1">
                    <mxGeometry width="80" relative="1" as="geometry">
                        <mxPoint x="2924.5" y="1030" as="sourcePoint"/>
                        <mxPoint x="3519" y="1030" as="targetPoint"/>
                    </mxGeometry>
                </mxCell>
                <mxCell id="80" value="creaCategoria(categoria: String)" style="html=1;verticalAlign=bottom;endArrow=block;" parent="1" target="65" edge="1" source="229">
                    <mxGeometry width="80" relative="1" as="geometry">
                        <mxPoint x="2924.5" y="1078" as="sourcePoint"/>
                        <mxPoint x="3070" y="1040" as="targetPoint"/>
                        <Array as="points">
                            <mxPoint x="3181" y="1078"/>
                        </Array>
                    </mxGeometry>
                </mxCell>
                <mxCell id="85" value="update()" style="html=1;verticalAlign=bottom;endArrow=block;" parent="1" source="84" target="86" edge="1">
                    <mxGeometry width="80" relative="1" as="geometry">
                        <mxPoint x="-420" y="846" as="sourcePoint"/>
                        <mxPoint x="-803" y="872" as="targetPoint"/>
                        <Array as="points">
                            <mxPoint x="-766" y="861"/>
                        </Array>
                    </mxGeometry>
                </mxCell>
                <mxCell id="93" value="SEQUENCE DIAGRAM CARICAMENTO PRODOTTI IN DISPENSA" style="text;html=1;strokeColor=none;fillColor=none;align=center;verticalAlign=middle;whiteSpace=wrap;rounded=0;fontSize=8;" parent="1" vertex="1">
                    <mxGeometry x="-1392" y="363" width="518" height="30" as="geometry"/>
                </mxCell>
                <mxCell id="103" value="piuOnClickListener: View.OnClickListener" style="shape=umlLifeline;perimeter=lifelinePerimeter;whiteSpace=wrap;html=1;container=1;collapsible=0;recursiveResize=0;outlineConnect=0;" parent="1" vertex="1">
                    <mxGeometry x="-472" y="654" width="165" height="649" as="geometry"/>
                </mxCell>
                <mxCell id="104" value="" style="html=1;points=[];perimeter=orthogonalPerimeter;" parent="103" vertex="1">
                    <mxGeometry x="77.5" y="465" width="10" height="95" as="geometry"/>
                </mxCell>
                <mxCell id="106" value="creaProdottoActivity: CreaProdottoActivity" style="shape=umlLifeline;perimeter=lifelinePerimeter;whiteSpace=wrap;html=1;container=1;collapsible=0;recursiveResize=0;outlineConnect=0;" parent="1" vertex="1">
                    <mxGeometry x="-290" y="456" width="136" height="1521" as="geometry"/>
                </mxCell>
                <mxCell id="107" value="" style="html=1;points=[];perimeter=orthogonalPerimeter;" parent="106" vertex="1">
                    <mxGeometry x="63" y="686" width="10" height="173" as="geometry"/>
                </mxCell>
                <mxCell id="114" value="" style="html=1;points=[];perimeter=orthogonalPerimeter;" parent="106" vertex="1">
                    <mxGeometry x="69" y="805" width="10" height="52" as="geometry"/>
                </mxCell>
                <mxCell id="115" value="setUpSpinner()" style="edgeStyle=orthogonalEdgeStyle;html=1;align=left;spacingLeft=2;endArrow=block;rounded=0;" parent="106" edge="1">
                    <mxGeometry relative="1" as="geometry">
                        <mxPoint x="71" y="799" as="sourcePoint"/>
                        <Array as="points">
                            <mxPoint x="73" y="799"/>
                            <mxPoint x="106" y="799"/>
                            <mxPoint x="106" y="839"/>
                        </Array>
                        <mxPoint x="78.5" y="839.02" as="targetPoint"/>
                    </mxGeometry>
                </mxCell>
                <mxCell id="130" value="&amp;lt;&amp;lt;CREATE&amp;gt;&amp;gt;" style="html=1;verticalAlign=bottom;endArrow=block;" parent="106" source="107" edge="1">
                    <mxGeometry width="80" relative="1" as="geometry">
                        <mxPoint x="72.99500000000018" y="803.9999999999998" as="sourcePoint"/>
                        <mxPoint x="224" y="780" as="targetPoint"/>
                    </mxGeometry>
                </mxCell>
                <mxCell id="216" value="" style="html=1;points=[];perimeter=orthogonalPerimeter;" parent="106" vertex="1">
                    <mxGeometry x="63" y="1037" width="10" height="42" as="geometry"/>
                </mxCell>
                <mxCell id="94" value="loop" style="shape=umlFrame;whiteSpace=wrap;html=1;width=60;height=22;" parent="1" vertex="1">
                    <mxGeometry x="2657" y="852.5" width="579" height="120" as="geometry"/>
                </mxCell>
                <mxCell id="110" value="comboBox&lt;br&gt;:ComboBox" style="shape=umlLifeline;perimeter=lifelinePerimeter;whiteSpace=wrap;html=1;container=1;collapsible=0;recursiveResize=0;outlineConnect=0;" parent="1" vertex="1">
                    <mxGeometry x="3078" y="852.5" width="139" height="356.5" as="geometry"/>
                </mxCell>
                <mxCell id="111" value="" style="html=1;points=[];perimeter=orthogonalPerimeter;" parent="110" vertex="1">
                    <mxGeometry x="64.5" y="47.25" width="10" height="52" as="geometry"/>
                </mxCell>
                <mxCell id="135" value="" style="html=1;points=[];perimeter=orthogonalPerimeter;" parent="110" vertex="1">
                    <mxGeometry x="64.5" y="289.5" width="10" height="52" as="geometry"/>
                </mxCell>
                <mxCell id="136" value="addItem(newCategoria: String)" style="html=1;verticalAlign=bottom;endArrow=block;" parent="110" source="41" edge="1">
                    <mxGeometry x="0.0485" width="80" relative="1" as="geometry">
                        <mxPoint x="-143" y="296.5" as="sourcePoint"/>
                        <mxPoint x="63" y="296.5" as="targetPoint"/>
                        <mxPoint as="offset"/>
                    </mxGeometry>
                </mxCell>
                <mxCell id="137" value="opt" style="shape=umlFrame;whiteSpace=wrap;html=1;" parent="110" vertex="1">
                    <mxGeometry x="-286" y="265" width="410" height="101" as="geometry"/>
                </mxCell>
                <mxCell id="228" value="" style="html=1;points=[];perimeter=orthogonalPerimeter;" vertex="1" parent="110">
                    <mxGeometry x="-163" y="243" width="10" height="113.5" as="geometry"/>
                </mxCell>
                <mxCell id="229" value="" style="html=1;points=[];perimeter=orthogonalPerimeter;" vertex="1" parent="110">
                    <mxGeometry x="64.5" y="216" width="10" height="34.5" as="geometry"/>
                </mxCell>
                <mxCell id="112" value="onCreate()" style="html=1;verticalAlign=bottom;endArrow=block;entryX=0.13;entryY=0.054;entryDx=0;entryDy=0;entryPerimeter=0;" parent="1" source="104" target="107" edge="1">
                    <mxGeometry width="80" relative="1" as="geometry">
                        <mxPoint x="-389.0549999999994" y="1247.6599999999999" as="sourcePoint"/>
                        <mxPoint x="-172.49999999999955" y="1225" as="targetPoint"/>
                    </mxGeometry>
                </mxCell>
                <mxCell id="113" value="addItem(categoria: String)" style="html=1;verticalAlign=bottom;endArrow=block;" parent="1" source="58" target="111" edge="1">
                    <mxGeometry x="-0.284" y="-1" width="80" relative="1" as="geometry">
                        <mxPoint x="3003" y="903" as="sourcePoint"/>
                        <mxPoint x="3083" y="903" as="targetPoint"/>
                        <mxPoint as="offset"/>
                    </mxGeometry>
                </mxCell>
                <mxCell id="117" value="applicaOnClickListener: View.OnClickListener" style="shape=umlLifeline;perimeter=lifelinePerimeter;whiteSpace=wrap;html=1;container=1;collapsible=0;recursiveResize=0;outlineConnect=0;" parent="1" vertex="1">
                    <mxGeometry x="243" y="1196" width="125" height="679" as="geometry"/>
                </mxCell>
                <mxCell id="123" value="creaProdottoController: CreaProdottoController" style="shape=umlLifeline;perimeter=lifelinePerimeter;whiteSpace=wrap;html=1;container=1;collapsible=0;recursiveResize=0;outlineConnect=0;" parent="1" vertex="1">
                    <mxGeometry x="-61" y="1230" width="135" height="815" as="geometry"/>
                </mxCell>
                <mxCell id="149" value="opt" style="shape=umlFrame;whiteSpace=wrap;html=1;" parent="123" vertex="1">
                    <mxGeometry x="-51" y="118" width="485" height="105" as="geometry"/>
                </mxCell>
                <mxCell id="134" value="" style="html=1;points=[];perimeter=orthogonalPerimeter;" parent="123" vertex="1">
                    <mxGeometry x="63" y="124" width="10" height="159" as="geometry"/>
                </mxCell>
                <mxCell id="138" value="" style="html=1;points=[];perimeter=orthogonalPerimeter;" parent="123" vertex="1">
                    <mxGeometry x="69" y="193" width="10" height="52" as="geometry"/>
                </mxCell>
                <mxCell id="140" value="serverRequest()" style="edgeStyle=orthogonalEdgeStyle;html=1;align=left;spacingLeft=2;endArrow=block;rounded=0;exitX=1;exitY=0.333;exitDx=0;exitDy=0;exitPerimeter=0;" parent="123" source="134" edge="1">
                    <mxGeometry relative="1" as="geometry">
                        <mxPoint x="73" y="177.01999999999998" as="sourcePoint"/>
                        <Array as="points">
                            <mxPoint x="107" y="177"/>
                            <mxPoint x="107" y="201"/>
                        </Array>
                        <mxPoint x="78.5" y="201.01999999999998" as="targetPoint"/>
                    </mxGeometry>
                </mxCell>
                <mxCell id="152" value="&lt;font style=&quot;font-size: 8px;&quot;&gt;[Fields are not empty]&lt;/font&gt;" style="text;html=1;align=center;verticalAlign=middle;resizable=0;points=[];autosize=1;strokeColor=none;fillColor=none;" parent="123" vertex="1">
                    <mxGeometry x="-51" y="150" width="95" height="26" as="geometry"/>
                </mxCell>
                <mxCell id="122" value="" style="html=1;points=[];perimeter=orthogonalPerimeter;" parent="123" vertex="1">
                    <mxGeometry x="362.5" y="101" width="10" height="46" as="geometry"/>
                </mxCell>
                <mxCell id="125" value="categoria&lt;br&gt;:Categoria" style="shape=umlLifeline;perimeter=lifelinePerimeter;whiteSpace=wrap;html=1;container=1;collapsible=0;recursiveResize=0;outlineConnect=0;" parent="1" vertex="1">
                    <mxGeometry x="3693" y="1073.75" width="130" height="60" as="geometry"/>
                </mxCell>
                <mxCell id="127" value="&amp;lt;&amp;lt;CREATE&amp;gt;&amp;gt;" style="html=1;verticalAlign=bottom;endArrow=block;exitX=1.1;exitY=0.189;exitDx=0;exitDy=0;exitPerimeter=0;" parent="1" source="60" edge="1">
                    <mxGeometry width="80" relative="1" as="geometry">
                        <mxPoint x="-1017.5" y="648.05" as="sourcePoint"/>
                        <mxPoint x="-809" y="645" as="targetPoint"/>
                    </mxGeometry>
                </mxCell>
                <mxCell id="129" value="&amp;lt;&amp;lt;create&amp;gt;&amp;gt;" style="html=1;verticalAlign=bottom;endArrow=block;" parent="1" source="65" edge="1">
                    <mxGeometry width="80" relative="1" as="geometry">
                        <mxPoint x="3403" y="1092" as="sourcePoint"/>
                        <mxPoint x="3691" y="1090" as="targetPoint"/>
                    </mxGeometry>
                </mxCell>
                <mxCell id="132" value="salvaProdotto(nome, descrizione, prezzo, costo, quantita)" style="html=1;verticalAlign=bottom;endArrow=block;" parent="1" source="122" edge="1">
                    <mxGeometry x="-0.0334" y="21" width="80" relative="1" as="geometry">
                        <mxPoint x="-379.05499999999984" y="1257.6599999999999" as="sourcePoint"/>
                        <mxPoint x="12" y="1375" as="targetPoint"/>
                        <mxPoint as="offset"/>
                    </mxGeometry>
                </mxCell>
                <mxCell id="139" value="&lt;font style=&quot;font-size: 8px;&quot;&gt;[flag]&lt;/font&gt;" style="text;html=1;align=center;verticalAlign=middle;resizable=0;points=[];autosize=1;strokeColor=none;fillColor=none;" parent="1" vertex="1">
                    <mxGeometry x="2843" y="1133.75" width="35" height="26" as="geometry"/>
                </mxCell>
                <mxCell id="141" value="flag" style="html=1;verticalAlign=bottom;endArrow=open;dashed=1;endSize=8;" parent="1" source="65" target="228" edge="1">
                    <mxGeometry x="-0.0112" y="-3" relative="1" as="geometry">
                        <mxPoint x="3072" y="1095" as="sourcePoint"/>
                        <mxPoint x="2939" y="1104" as="targetPoint"/>
                        <Array as="points">
                            <mxPoint x="3204" y="1104"/>
                        </Array>
                        <mxPoint as="offset"/>
                    </mxGeometry>
                </mxCell>
                <mxCell id="144" value="backOnClickListener: View.OnClickListener" style="shape=umlLifeline;perimeter=lifelinePerimeter;whiteSpace=wrap;html=1;container=1;collapsible=0;recursiveResize=0;outlineConnect=0;" parent="1" vertex="1">
                    <mxGeometry x="444" y="1151" width="136" height="1271" as="geometry"/>
                </mxCell>
                <mxCell id="159" value="" style="html=1;points=[];perimeter=orthogonalPerimeter;" parent="144" vertex="1">
                    <mxGeometry x="63" y="403" width="10" height="46" as="geometry"/>
                </mxCell>
                <mxCell id="148" value="salvaListener:onClickListener" style="shape=umlLifeline;perimeter=lifelinePerimeter;whiteSpace=wrap;html=1;container=1;collapsible=0;recursiveResize=0;outlineConnect=0;" parent="1" vertex="1">
                    <mxGeometry x="3211" y="1268" width="159" height="118" as="geometry"/>
                </mxCell>
                <mxCell id="154" value="" style="html=1;points=[];perimeter=orthogonalPerimeter;" parent="148" vertex="1">
                    <mxGeometry x="74.5" y="58" width="10" height="47" as="geometry"/>
                </mxCell>
                <mxCell id="153" value="onClick()" style="html=1;verticalAlign=bottom;endArrow=block;" parent="1" source="14" target="154" edge="1">
                    <mxGeometry width="80" relative="1" as="geometry">
                        <mxPoint x="2957" y="1323" as="sourcePoint"/>
                        <mxPoint x="3243" y="1347" as="targetPoint"/>
                    </mxGeometry>
                </mxCell>
                <mxCell id="155" value="creaPiatto(nome: String, descrizione: String, nomeSecondaLingua: String,&lt;br&gt;descrizioneSecondaLingua: String, costo: double, allergeni: String, categoria: String)" style="html=1;verticalAlign=bottom;endArrow=block;" parent="1" source="156" target="142" edge="1">
                    <mxGeometry width="80" relative="1" as="geometry">
                        <mxPoint x="3328" y="1151" as="sourcePoint"/>
                        <mxPoint x="3408" y="1151" as="targetPoint"/>
                        <Array as="points">
                            <mxPoint x="3001" y="1468"/>
                        </Array>
                    </mxGeometry>
                </mxCell>
                <mxCell id="157" value="salvaPiatto()" style="html=1;verticalAlign=bottom;endArrow=block;" parent="1" source="154" target="156" edge="1">
                    <mxGeometry width="80" relative="1" as="geometry">
                        <mxPoint x="3064" y="1369" as="sourcePoint"/>
                        <mxPoint x="3144" y="1369" as="targetPoint"/>
                    </mxGeometry>
                </mxCell>
                <mxCell id="183" value="dispensaController: DispensaController" style="shape=umlLifeline;perimeter=lifelinePerimeter;whiteSpace=wrap;html=1;container=1;collapsible=0;recursiveResize=0;outlineConnect=0;" parent="1" vertex="1">
                    <mxGeometry x="-802" y="1613" width="166" height="235" as="geometry"/>
                </mxCell>
                <mxCell id="184" value="" style="html=1;points=[];perimeter=orthogonalPerimeter;" parent="183" vertex="1">
                    <mxGeometry x="77.5" y="85" width="10" height="77" as="geometry"/>
                </mxCell>
                <mxCell id="185" value="" style="html=1;points=[];perimeter=orthogonalPerimeter;" parent="183" vertex="1">
                    <mxGeometry x="83" y="105" width="10" height="47" as="geometry"/>
                </mxCell>
                <mxCell id="186" value="serverRequest()" style="edgeStyle=orthogonalEdgeStyle;html=1;align=left;spacingLeft=2;endArrow=block;rounded=0;" parent="183" source="184" target="185" edge="1">
                    <mxGeometry relative="1" as="geometry">
                        <mxPoint x="129" y="132" as="sourcePoint"/>
                        <Array as="points">
                            <mxPoint x="121" y="92"/>
                            <mxPoint x="121" y="116"/>
                        </Array>
                        <mxPoint x="134" y="152" as="targetPoint"/>
                    </mxGeometry>
                </mxCell>
                <mxCell id="187" value="&amp;lt;&amp;lt;CREATE&amp;gt;&amp;gt;" style="html=1;verticalAlign=bottom;endArrow=block;" parent="183" source="185" edge="1">
                    <mxGeometry width="80" relative="1" as="geometry">
                        <mxPoint x="112" y="148.20000000000005" as="sourcePoint"/>
                        <mxPoint x="195" y="145" as="targetPoint"/>
                    </mxGeometry>
                </mxCell>
                <mxCell id="188" value="loop" style="shape=umlFrame;whiteSpace=wrap;html=1;" parent="183" vertex="1">
                    <mxGeometry x="-30" y="126" width="412" height="78" as="geometry"/>
                </mxCell>
                <mxCell id="189" value="&lt;font style=&quot;font-size: 8px;&quot;&gt;[for each prodotto in json]&lt;/font&gt;" style="text;html=1;align=center;verticalAlign=middle;resizable=0;points=[];autosize=1;strokeColor=none;fillColor=none;" parent="183" vertex="1">
                    <mxGeometry x="-30.5" y="158" width="108" height="26" as="geometry"/>
                </mxCell>
                <mxCell id="193" value="onCreate()" style="html=1;verticalAlign=bottom;endArrow=block;" parent="1" source="159" edge="1">
                    <mxGeometry x="-0.007" width="80" relative="1" as="geometry">
                        <mxPoint x="502.5519999999997" y="1591.406" as="sourcePoint"/>
                        <mxPoint x="-918.6764705882347" y="1591.406" as="targetPoint"/>
                        <mxPoint as="offset"/>
                    </mxGeometry>
                </mxCell>
                <mxCell id="190" value="prodotto : Prodotto" style="shape=umlLifeline;perimeter=lifelinePerimeter;whiteSpace=wrap;html=1;container=1;collapsible=0;recursiveResize=0;outlineConnect=0;" parent="1" vertex="1">
                    <mxGeometry x="-584" y="1747" width="129" height="248" as="geometry"/>
                </mxCell>
                <mxCell id="191" value="" style="html=1;points=[];perimeter=orthogonalPerimeter;" parent="190" vertex="1">
                    <mxGeometry x="59.5" y="49" width="10" height="155" as="geometry"/>
                </mxCell>
                <mxCell id="194" value="onClick()" style="html=1;verticalAlign=bottom;endArrow=block;" parent="1" source="34" target="196" edge="1">
                    <mxGeometry width="80" relative="1" as="geometry">
                        <mxPoint x="-1629" y="2083" as="sourcePoint"/>
                        <mxPoint x="516.5" y="2083" as="targetPoint"/>
                    </mxGeometry>
                </mxCell>
                <mxCell id="195" value="modificaOnClickListener: View.OnClickListener" style="shape=umlLifeline;perimeter=lifelinePerimeter;whiteSpace=wrap;html=1;container=1;collapsible=0;recursiveResize=0;outlineConnect=0;" parent="1" vertex="1">
                    <mxGeometry x="-417" y="1655" width="141" height="554" as="geometry"/>
                </mxCell>
                <mxCell id="196" value="" style="html=1;points=[];perimeter=orthogonalPerimeter;" parent="195" vertex="1">
                    <mxGeometry x="65.5" y="419" width="10" height="89" as="geometry"/>
                </mxCell>
                <mxCell id="198" value="modificaProdottoActivity: ModificaProdottoActivity" style="shape=umlLifeline;perimeter=lifelinePerimeter;whiteSpace=wrap;html=1;container=1;collapsible=0;recursiveResize=0;outlineConnect=0;" parent="1" vertex="1">
                    <mxGeometry x="805" y="454" width="136" height="2065" as="geometry"/>
                </mxCell>
                <mxCell id="199" value="" style="html=1;points=[];perimeter=orthogonalPerimeter;" parent="198" vertex="1">
                    <mxGeometry x="63" y="1663" width="10" height="229" as="geometry"/>
                </mxCell>
                <mxCell id="218" value="" style="html=1;points=[];perimeter=orthogonalPerimeter;" parent="198" vertex="1">
                    <mxGeometry x="62.99999999999991" y="1914" width="10" height="42" as="geometry"/>
                </mxCell>
                <mxCell id="219" value="setErrorLabel()" style="html=1;verticalAlign=bottom;endArrow=block;exitX=0.115;exitY=0.867;exitDx=0;exitDy=0;exitPerimeter=0;" parent="198" target="218" edge="1">
                    <mxGeometry width="80" relative="1" as="geometry">
                        <mxPoint x="270" y="1916.853" as="sourcePoint"/>
                        <mxPoint x="154.8499999999999" y="1938" as="targetPoint"/>
                    </mxGeometry>
                </mxCell>
                <mxCell id="201" value="applicaOnClickListener: View.OnClickListener" style="shape=umlLifeline;perimeter=lifelinePerimeter;whiteSpace=wrap;html=1;container=1;collapsible=0;recursiveResize=0;outlineConnect=0;" parent="1" vertex="1">
                    <mxGeometry x="1388" y="2123" width="136" height="427" as="geometry"/>
                </mxCell>
                <mxCell id="202" value="" style="html=1;points=[];perimeter=orthogonalPerimeter;" parent="201" vertex="1">
                    <mxGeometry x="63" y="136" width="10" height="46" as="geometry"/>
                </mxCell>
                <mxCell id="204" value="modificaProdottoController: ModificaProdottoController" style="shape=umlLifeline;perimeter=lifelinePerimeter;whiteSpace=wrap;html=1;container=1;collapsible=0;recursiveResize=0;outlineConnect=0;" parent="1" vertex="1">
                    <mxGeometry x="1003" y="2170" width="154" height="282" as="geometry"/>
                </mxCell>
                <mxCell id="207" value="" style="html=1;points=[];perimeter=orthogonalPerimeter;" parent="204" vertex="1">
                    <mxGeometry x="72" y="105" width="10" height="104" as="geometry"/>
                </mxCell>
                <mxCell id="214" value="" style="html=1;points=[];perimeter=orthogonalPerimeter;" parent="204" vertex="1">
                    <mxGeometry x="78" y="138" width="10" height="64" as="geometry"/>
                </mxCell>
                <mxCell id="206" value="&amp;lt;&amp;lt;CREATE&amp;gt;&amp;gt;" style="html=1;verticalAlign=bottom;endArrow=block;" parent="1" source="199" edge="1">
                    <mxGeometry width="80" relative="1" as="geometry">
                        <mxPoint x="940.9976190476184" y="2144" as="sourcePoint"/>
                        <mxPoint x="994" y="2193" as="targetPoint"/>
                    </mxGeometry>
                </mxCell>
                <mxCell id="208" value="modificaServerPiattoInfo(nome, descrizione, prezzo, costo, quantita)" style="html=1;verticalAlign=bottom;endArrow=block;exitX=0.019;exitY=0.812;exitDx=0;exitDy=0;exitPerimeter=0;" parent="1" source="202" target="207" edge="1">
                    <mxGeometry width="80" relative="1" as="geometry">
                        <mxPoint x="888" y="2203" as="sourcePoint"/>
                        <mxPoint x="1004" y="2203" as="targetPoint"/>
                    </mxGeometry>
                </mxCell>
                <mxCell id="211" value="&lt;font style=&quot;font-size: 8px;&quot;&gt;[Fields are not empty]&lt;/font&gt;" style="text;html=1;align=center;verticalAlign=middle;resizable=0;points=[];autosize=1;strokeColor=none;fillColor=none;" parent="1" vertex="1">
                    <mxGeometry x="974" y="2269" width="95" height="26" as="geometry"/>
                </mxCell>
                <mxCell id="215" value="serverRequest()" style="edgeStyle=orthogonalEdgeStyle;html=1;align=left;spacingLeft=2;endArrow=block;rounded=0;" parent="1" edge="1">
                    <mxGeometry relative="1" as="geometry">
                        <mxPoint x="1085" y="2299" as="sourcePoint"/>
                        <Array as="points">
                            <mxPoint x="1118.5" y="2299"/>
                            <mxPoint x="1118.5" y="2323"/>
                        </Array>
                        <mxPoint x="1090.5" y="2323" as="targetPoint"/>
                    </mxGeometry>
                </mxCell>
                <mxCell id="217" value="setErrorLabel()" style="html=1;verticalAlign=bottom;endArrow=block;exitX=0.115;exitY=0.867;exitDx=0;exitDy=0;exitPerimeter=0;" parent="1" source="134" target="216" edge="1">
                    <mxGeometry width="80" relative="1" as="geometry">
                        <mxPoint x="-20" y="1518" as="sourcePoint"/>
                        <mxPoint x="-112" y="1518" as="targetPoint"/>
                    </mxGeometry>
                </mxCell>
                <mxCell id="223" value="&amp;lt;&amp;lt;CREATE&amp;gt;&amp;gt;" style="html=1;verticalAlign=bottom;endArrow=block;exitX=1.174;exitY=0.173;exitDx=0;exitDy=0;exitPerimeter=0;" parent="1" edge="1">
                    <mxGeometry width="80" relative="1" as="geometry">
                        <mxPoint x="-216.00000000000023" y="1218.4350000000002" as="sourcePoint"/>
                        <mxPoint x="235" y="1218" as="targetPoint"/>
                    </mxGeometry>
                </mxCell>
                <mxCell id="225" value="&amp;lt;&amp;lt;CREATE&amp;gt;&amp;gt;" style="html=1;verticalAlign=bottom;endArrow=block;" parent="1" source="59" edge="1">
                    <mxGeometry width="80" relative="1" as="geometry">
                        <mxPoint x="-908.6764705882347" y="1657.5" as="sourcePoint"/>
                        <mxPoint x="-431" y="1676" as="targetPoint"/>
                    </mxGeometry>
                </mxCell>
                <mxCell id="226" value="&amp;lt;&amp;lt;CREATE&amp;gt;&amp;gt;" style="html=1;verticalAlign=bottom;endArrow=block;" edge="1" parent="1" source="199">
                    <mxGeometry width="80" relative="1" as="geometry">
                        <mxPoint x="888" y="2203" as="sourcePoint"/>
                        <mxPoint x="1377" y="2137" as="targetPoint"/>
                    </mxGeometry>
                </mxCell>
                <mxCell id="230" value="itemSelectedListener()" style="html=1;verticalAlign=bottom;endArrow=block;entryX=0.005;entryY=0.026;entryDx=0;entryDy=0;entryPerimeter=0;" edge="1" parent="1" source="14" target="229">
                    <mxGeometry width="80" relative="1" as="geometry">
                        <mxPoint x="3025" y="1015" as="sourcePoint"/>
                        <mxPoint x="3105" y="1015" as="targetPoint"/>
                    </mxGeometry>
                </mxCell>
            </root>
        </mxGraphModel>
    </diagram>
</mxfile>